<svg viewBox="0 0 51 22" xmlns="http://www.w3.org/2000/svg" xmlns:xlink="http://www.w3.org/1999/xlink" width="51.000000" height="22.000000" fill="none" customFrame="#000000">
	<path id="矩形" d="M39 0C45.6274 0 51 5.37258 51 12L51 18C51 20.2091 49.2091 22 47 22L12 22C5.37258 22 0 16.6274 0 10L0 4C0 1.79086 1.79086 0 4 0L39 0Z" fill="rgb(255,254.745,254.745)" fill-opacity="0.300000012" fill-rule="evenodd" />
	<path id="矩形" d="M39 0C45.6274 0 51 5.37258 51 12L51 18C51 20.2091 49.2091 22 47 22L12 22C5.37258 22 0 16.6274 0 10L0 4C0 1.79086 1.79086 0 4 0L39 0Z" fill="rgb(0,0,0)" fill-opacity="0.300000012" fill-rule="evenodd" />
</svg>
